<svg xmlns="http://www.w3.org/2000/svg" version="1.1" xmlns:xlink="http://www.w3.org/1999/xlink" xmlns:svgjs="http://svgjs.dev/svgjs" width="1500" height="1500" viewBox="0 0 1500 1500"><rect width="1500" height="1500" fill="#585555"></rect><g transform="matrix(0.6666666666666666,0,0,0.6666666666666666,249.39393939393938,688.0973647250732)"><svg viewBox="0 0 396 49" data-background-color="#585555" preserveAspectRatio="xMidYMid meet" height="185" width="1500" xmlns="http://www.w3.org/2000/svg" xmlns:xlink="http://www.w3.org/1999/xlink"><g id="tight-bounds" transform="matrix(1,0,0,1,0.2400000000000091,0.09374969030878333)"><svg viewBox="0 0 395.52 48.81250061938242" height="48.81250061938242" width="395.52"><g><svg viewBox="0 0 472.11519887488123 58.26538085937499" height="48.81250061938242" width="395.52"><g><svg viewBox="0 0 472.11519887488123 58.26538085937499" height="58.26538085937499" width="472.11519887488123"><g id="textblocktransform"><svg viewBox="0 0 472.11519887488123 58.26538085937499" height="58.26538085937499" width="472.11519887488123" id="textblock"><g><svg viewBox="0 0 472.11519887488123 58.26538085937499" height="58.26538085937499" width="472.11519887488123"><g><svg><g></g><g></g></svg></g><g><svg><g></g><g><svg></svg></g></svg></g><g id="text-0"><svg viewBox="0 0 472.11519887488123 58.26538085937499" height="58.26538085937499" width="472.11519887488123"><g><svg xmlns="http://www.w3.org/2000/svg" xmlns:xlink="http://www.w3.org/1999/xlink" version="1.1" x="0" y="0" viewBox="0.5 10.9 71.03853870664699 50.1" enable-background="new 0 0 72 72" xml:space="preserve" height="58.26538085937499" width="82.61651723425626" class="icon-dxe-0" data-fill-palette-color="accent" id="dxe-0"><g fill="#850ea2" data-fill-palette-color="accent"><path fill="#850ea2" d="M70.2 10.9H22.8C22.2 10.9 21.7 11.3 21.5 11.9L8.8 59.4C8.6 60.2 9.2 61 10.1 61H57.5C58.1 61 58.6 60.6 58.8 60L71.5 12.5C71.7 11.7 71.1 10.9 70.2 10.9M19.6 53.1L18.6 56.8C18.4 57.4 17.9 57.8 17.3 57.8H13.7C12.8 57.8 12.2 57 12.4 56.2L13.4 52.5C13.6 51.9 14.1 51.5 14.7 51.5H18.3C19.2 51.4 19.9 52.2 19.6 53.1M35.2 18.9L36.2 15.2C36.4 14.6 36.9 14.2 37.5 14.2H41.1C42 14.2 42.6 15 42.4 15.8L41.4 19.5C41.2 20.1 40.7 20.5 40.1 20.5H36.5C35.6 20.6 34.9 19.8 35.2 18.9M22.4 18.9L23.4 15.2C23.6 14.6 24.1 14.2 24.7 14.2H28.3C29.2 14.2 29.8 15 29.6 15.8L28.6 19.5C28.4 20.1 27.9 20.5 27.3 20.5H23.7C22.8 20.6 22.2 19.8 22.4 18.9M32.4 53.1L31.4 56.8C31.2 57.4 30.7 57.8 30.1 57.8H26.5C25.6 57.8 25 57 25.2 56.2L26.2 52.5C26.4 51.9 26.9 51.5 27.5 51.5H31.1C32 51.4 32.6 52.2 32.4 53.1M45.1 53.1L44.1 56.8C43.9 57.4 43.4 57.8 42.8 57.8H39.2C38.3 57.8 37.7 57 37.9 56.2L38.9 52.5C39.1 51.9 39.6 51.5 40.2 51.5H43.8C44.7 51.4 45.3 52.2 45.1 53.1M45.6 37.2L33.9 46.5C32.5 47.6 30.9 46.8 31.3 45.3L36.3 26.8C36.7 25.3 38.8 24.5 39.5 25.6L46.3 34.9C46.8 35.5 46.5 36.5 45.6 37.2M47.9 18.9L48.9 15.2C49.1 14.6 49.6 14.2 50.2 14.2H53.8C54.7 14.2 55.3 15 55.1 15.8L54.1 19.5C53.9 20.1 53.4 20.5 52.8 20.5H49.2C48.3 20.6 47.6 19.8 47.9 18.9M57.8 53.1L56.8 56.8C56.6 57.4 56.1 57.8 55.5 57.8H51.9C51 57.8 50.4 57 50.6 56.2L51.6 52.5C51.8 51.9 52.3 51.5 52.9 51.5H56.5C57.4 51.4 58 52.2 57.8 53.1M67.8 15.9L66.8 19.6C66.6 20.2 66.1 20.6 65.5 20.6H61.9C61 20.6 60.4 19.8 60.6 19L61.6 15.3C61.8 14.7 62.3 14.3 62.9 14.3H66.5C67.4 14.2 68 15 67.8 15.9" data-fill-palette-color="accent"></path><path fill="#850ea2" d="M3.2 24.1H12.6C13.6 24.1 14.3 23.3 14.3 22.4 14.3 21.4 13.5 20.7 12.6 20.7H3.2C2.2 20.7 1.5 21.5 1.5 22.4 1.5 23.4 2.3 24.1 3.2 24.1" data-fill-palette-color="accent"></path><path fill="#850ea2" d="M2.2 33.2H9.6C10.6 33.2 11.3 32.4 11.3 31.5 11.3 30.5 10.5 29.8 9.6 29.8H2.2C1.2 29.8 0.5 30.6 0.5 31.5S1.3 33.2 2.2 33.2" data-fill-palette-color="accent"></path><path fill="#850ea2" d="M8.4 38.8H3.2C2.2 38.8 1.5 39.6 1.5 40.5 1.5 41.5 2.3 42.2 3.2 42.2H8.4C9.4 42.2 10.1 41.4 10.1 40.5S9.3 38.8 8.4 38.8" data-fill-palette-color="accent"></path><path fill="#850ea2" d="M5 47.9H2.2C1.2 47.9 0.5 48.7 0.5 49.6 0.5 50.6 1.3 51.3 2.2 51.3H5C6 51.3 6.7 50.5 6.7 49.6 6.7 48.6 6 47.9 5 47.9" data-fill-palette-color="accent"></path></g></svg></g><g transform="matrix(1,0,0,1,96.37262074988126,0)"><svg width="375.74257812499997" viewBox="4.49 -36.01 232.20999999999998 36.01" height="58.26538085937499" data-palette-color="#ffffff"><path d="M4.49 0L4.49-35.01 30-35.01 30-30 9.5-30 9.5-20 27-20 27-14.99 9.5-14.99 9.5-5 30-5 30 0 4.49 0ZM68.6-21.19L57.61-21.19 57.61 0 52.81 0 52.81-21.19 41.79-21.19 41.79 0 37.01 0 37.01-26 41.79-26 41.79-21.41Q41.84-22.36 42.23-23.21 42.62-24.05 43.27-24.67 43.92-25.29 44.77-25.65 45.63-26 46.6-26L46.6-26 52.81-26Q53.76-26 54.61-25.65 55.47-25.29 56.13-24.67 56.78-24.05 57.19-23.21 57.59-22.36 57.61-21.41L57.61-21.41Q57.66-22.36 58.04-23.21 58.42-24.05 59.07-24.67 59.71-25.29 60.57-25.65 61.42-26 62.4-26L62.4-26 68.6-26Q69.6-26 70.48-25.62 71.36-25.24 72.01-24.6 72.65-23.95 73.03-23.07 73.41-22.19 73.41-21.19L73.41-21.19 73.41 0 68.6 0 68.6-21.19ZM104.41-21.19L104.41-4.81Q104.41-3.81 104.04-2.93 103.66-2.05 103.01-1.4 102.36-0.76 101.48-0.38 100.61 0 99.6 0L99.6 0 86.2 0Q85.22 0 84.35-0.38 83.47-0.76 82.82-1.4 82.17-2.05 81.79-2.93 81.42-3.81 81.42-4.81L81.42-4.81 81.42-36.01 86.2-36.01 86.2-21.41Q86.25-22.36 86.64-23.21 87.03-24.05 87.68-24.67 88.33-25.29 89.18-25.65 90.03-26 91.01-26L91.01-26 99.6-26Q100.61-26 101.48-25.62 102.36-25.24 103.01-24.6 103.66-23.95 104.04-23.07 104.41-22.19 104.41-21.19L104.41-21.19ZM99.6-21.19L86.2-21.19 86.2-4.81 99.6-4.81 99.6-21.19ZM112.42-36.01L117.2-36.01 117.2 0 112.42 0 112.42-36.01ZM125.21-4.81L125.21-11.35Q125.21-12.35 125.59-13.22 125.97-14.09 126.61-14.75 127.26-15.41 128.14-15.78 129.02-16.16 129.99-16.16L129.99-16.16 142.4-16.16 142.4-21.19 126.7-21.19 126.7-26 142.4-26Q143.4-26 144.28-25.62 145.16-25.24 145.8-24.6 146.45-23.95 146.83-23.07 147.21-22.19 147.21-21.19L147.21-21.19 147.21 0 142.4 0 142.4-4.39Q142.32-3.49 141.91-2.69 141.49-1.88 140.85-1.28 140.2-0.68 139.37-0.34 138.54 0 137.61 0L137.61 0 129.99 0Q129.02 0 128.14-0.38 127.26-0.76 126.61-1.4 125.97-2.05 125.59-2.93 125.21-3.81 125.21-4.81L125.21-4.81ZM129.99-11.35L129.99-4.81 142.4-4.81 142.4-11.35 129.99-11.35ZM154.7-21.19L154.7-26 176.21-26 176.21-24.71 162.37-4.81 176.21-4.81 176.21 0 154.21 0 154.21-1.29 168.05-21.19 154.7-21.19ZM205.7-21.19L205.7-4.81Q205.7-3.81 205.32-2.93 204.94-2.05 204.29-1.4 203.65-0.76 202.78-0.38 201.91 0 200.91 0L200.91 0 188 0Q187.02 0 186.14-0.38 185.26-0.76 184.62-1.4 183.97-2.05 183.59-2.93 183.21-3.81 183.21-4.81L183.21-4.81 183.21-21.19Q183.21-22.19 183.59-23.07 183.97-23.95 184.62-24.6 185.26-25.24 186.14-25.62 187.02-26 188-26L188-26 200.91-26Q201.91-26 202.78-25.62 203.65-25.24 204.29-24.6 204.94-23.95 205.32-23.07 205.7-22.19 205.7-21.19L205.7-21.19ZM200.91-21.19L188-21.19 188-4.81 200.91-4.81 200.91-21.19ZM236.7-21.19L236.7 0 231.89 0 231.89-21.19 218.49-21.19 218.49 0 213.7 0 213.7-26 218.49-26 218.49-21.41Q218.54-22.36 218.93-23.21 219.32-24.05 219.97-24.67 220.61-25.29 221.47-25.65 222.32-26 223.3-26L223.3-26 231.89-26Q232.89-26 233.77-25.62 234.65-25.24 235.3-24.6 235.94-23.95 236.32-23.07 236.7-22.19 236.7-21.19L236.7-21.19Z" opacity="1" transform="matrix(1,0,0,1,0,0)" fill="#ffffff" class="wordmark-text-0" data-fill-palette-color="primary"></path></svg></g></svg></g></svg></g></svg></g></svg></g></svg></g><defs></defs></svg><rect width="395.52" height="48.81250061938242" fill="none" stroke="none" visibility="hidden"></rect></g></svg></g></svg>